<?xml version="1.0" standalone="no"?>
<!DOCTYPE svg PUBLIC "-//W3C//DTD SVG 1.1//EN" "http://www.w3.org/Graphics/SVG/1.1/DTD/svg11.dtd">
<svg xmlns="http://www.w3.org/2000/svg">
<defs >
<font id="OtomanopeeOne" horiz-adv-x="866" ><font-face
    font-family="Otomanopee One"
    units-per-em="1000"
    panose-1="0 0 0 0 0 0 0 0 0 0"
    ascent="1160"
    descent="-288"
    alphabetic="0" />
<glyph unicode=" " glyph-name="space" horiz-adv-x="400" />
<glyph unicode="!" glyph-name="exclam" horiz-adv-x="278" d="M73 180Q62 326 56 477T50 791H228Q228 628 223 477T206 180H73ZM69 -30V94H209V-30H69Z" />
<glyph unicode="&quot;" glyph-name="quotedbl" horiz-adv-x="408" d="M340 561Q311 561 285 561T240 563Q239 610 238 662T237 761T236 839Q265 839 295 838T358 835Q358 749 340 561ZM68 561Q50 749 50 835Q82 837 112 838T172 839Q172 809 172 762T171 662T168
563Q149 562 123 562T68 561Z" />
<glyph unicode="#" glyph-name="numbersign" horiz-adv-x="620" d="M102 -5L106 111L50 93V188L110 207L118 427L70 412V507L122 524L128 685L273 710L268 570L368 602L373 740L518 765L514 649L570 667V572L510 553L502 333L550 348V253L498 236L492 75L347 50L352
190L252 158L247 20L102 -5ZM264 474L256 254L356 286L364 506L264 474Z" />
<glyph unicode="$" glyph-name="dollar" horiz-adv-x="682" d="M290 -35V11Q226 20 161 47T50 111L138 230Q174 191 213 161T290 113V301Q210 343 163 380T94 453T73 532Q73 586 101 631T179 707T290 748V795H390V749Q454 740 520 714T632 649L544 530Q508 569
468 599T390 648V460Q470 418 518 381T587 307T609 228Q609 174 581 129T502 52T390 12V-35H290ZM212 599Q212 578 229 559T290 514V670Q257 665 235 646T212 599ZM470 161Q470 182 453 201T390 247V90Q424 94 447 114T470 161Z" />
<glyph unicode="%" glyph-name="percent" horiz-adv-x="760" d="M215 -15L135 35L545 575L625 525L215 -15ZM201 289Q135 289 93 330T50 435Q50 497 91 534T199 572Q264 572 305 533T346 428Q346 366 306 328T201 289ZM203 343Q218 343 227 364T236 420Q236 463
225 490T194 518Q178 518 169 498T160 445Q160 403 172 373T203 343ZM561 -12Q496 -12 455 28T414 132Q414 194 454 232T559 271Q625 271 667 230T710 125Q710 64 669 26T561 -12ZM566 42Q582 42 591 62T600 115Q600 157 588 187T557 217Q542 217 533 196T524 140Q524
97 535 70T566 42Z" />
<glyph unicode="&amp;" glyph-name="ampersand" horiz-adv-x="762" d="M609 -8Q573 15 537 43T464 102Q407 54 348 27T232 0Q180 0 139 22T74 84T50 174Q50 209 64 242T110 312T196 398Q152 462 126 518T100 612Q100 654 129 689T205 746T309 768Q362 768 402
750T466 698T490 623Q490 583 465 540T375 431Q440 365 517 300Q551 357 587 434L674 380Q637 306 591 241Q631 210 671 182T752 131L609 -8ZM230 645Q230 622 251 585T310 504Q339 537 351 564T364 620Q364 658 346 681T298 704Q271 704 251 687T230 645ZM211
215Q211 176 240 149T312 122Q358 122 403 158Q326 233 260 314Q233 282 222 259T211 215Z" />
<glyph unicode="&apos;" glyph-name="quotesingle" horiz-adv-x="227" d="M63 561Q59 601 56 649T52 745T50 835Q88 837 117 838T177 839Q177 802 174 728T163 563Q121 562 99 562T63 561Z" />
<glyph unicode="(" glyph-name="parenleft" horiz-adv-x="524" d="M347 -57Q288 -10 244 58T175 206T150 369Q150 459 179 542T261 696T390 817L447 762Q368 683 331 606T294 440Q294 337 340 255T474 119Q452 84 422 42T347 -57Z" />
<glyph unicode=")" glyph-name="parenright" horiz-adv-x="524" d="M134 -57L77 -2Q157 77 193 154T230 320Q230 423 184 505T50 641Q72 676 103 719T177 817Q237 771 281 703T349 554T374 391Q374 302 345 219T263 65T134 -57Z" />
<glyph unicode="*" glyph-name="asterisk" horiz-adv-x="567" d="M225 208Q236 237 242 265T251 323Q197 286 161 242L100 344Q126 349 155 357T217 378Q186 392 157 401T101 416L163 518Q196 476 251 433Q245 495 225 552H344Q334 524 327 495T315 435Q342 455
365 475T405 518L467 417Q407 407 347 378Q410 353 467 344L406 242Q369 285 315 323Q320 294 327 266T344 208H225Z" />
<glyph unicode="+" glyph-name="plus" horiz-adv-x="500" d="M170 185V335H50V425H170V575H330V425H450V335H330V185H170Z" />
<glyph unicode="," glyph-name="comma" horiz-adv-x="340" d="M142 -76L99 -35L153 23Q135 49 110 77T50 136Q76 164 108 191T167 238Q202 193 233 147T290 54Q256 26 217 -8T142 -76Z" />
<glyph unicode="-" glyph-name="hyphen" horiz-adv-x="450" d="M50 335V425H400V335H50Z" />
<glyph unicode="." glyph-name="period" horiz-adv-x="265" d="M63 25L50 187Q80 190 125 192T215 194Q215 160 215 125T214 65T212 31Q178 31 137 30T63 25Z" />
<glyph unicode="/" glyph-name="slash" horiz-adv-x="540" d="M130 -25L30 5L410 785L510 755L130 -25Z" />
<glyph unicode="0" glyph-name="zero" horiz-adv-x="640" d="M307 -5Q226 -5 164 42T66 173T30 365Q30 451 52 524T116 651T212 735T332 765Q414 765 476 718T574 588T610 396Q610 310 587 237T523 110T427 25T307 -5ZM350 79Q380 79 403 109T441 193T455 313Q455
383 441 448T402 566T348 650T285 681Q240 681 213 620T185 458Q185 386 199 319T236 197T289 111T350 79Z" />
<glyph unicode="1" glyph-name="one" horiz-adv-x="400" d="M330 0H133Q134 28 135 79T136 195T137 333T138 476T139 608L20 612L10 671Q108 700 184 725T323 775Q324 744 325 690T326 568T328 423T329 270T330 124T330 0Z" />
<glyph unicode="2" glyph-name="two" horiz-adv-x="610" d="M575 -10L41 9L28 90Q105 149 170 215T283 347T358 472T385 578Q385 625 360 655T295 685Q251 685 203 645T109 527L10 636Q57 696 133 730T294 765Q374 765 436 736T534 654T570 536Q570 443 490 336T236
92L580 115L575 -10Z" />
<glyph unicode="3" glyph-name="three" horiz-adv-x="650" d="M317 -5Q226 -5 148 29T10 129Q23 147 41 171T81 220T119 264Q197 169 258 125T371 80Q416 80 445 109T474 183Q474 251 403 293T203 342L245 490Q430 490 430 579Q430 608 414 632T371 672T313 688Q270
688 229 654T138 539L35 645Q73 682 124 708T235 750T353 765Q423 765 477 745T563 689T595 607Q595 568 573 533T512 474T425 440Q480 428 524 395T594 315T620 217Q620 154 581 104T473 24T317 -5Z" />
<glyph unicode="4" glyph-name="four" horiz-adv-x="640" d="M372 -2Q370 45 370 103T368 218Q270 219 183 221T30 226Q30 269 31 330T34 463T39 611T45 760Q88 760 140 758T229 750Q223 699 217 638T206 513T196 392T190 293Q234 293 279 293T368 296Q368 305
368 314Q368 389 369 467T371 620T375 757Q439 757 482 756T551 753Q548 699 545 624T537 466T530 303Q587 307 626 311L630 216Q579 216 527 216Q524 141 523 84T521 2Q504 1 477 0T422 -1T372 -2Z" />
<glyph unicode="5" glyph-name="five" horiz-adv-x="640" d="M302 1Q235 1 165 23T30 87Q91 176 132 217Q204 146 255 117T356 87Q406 87 434 111T463 178Q463 235 416 276T282 339T72 361Q72 415 71 481T66 617T58 753L590 775L578 669L247 684Q247 648 246 607T244
527T241 465Q420 455 515 398T610 243Q610 193 586 149T520 72T422 20T302 1Z" />
<glyph unicode="6" glyph-name="six" horiz-adv-x="670" d="M337 -5Q247 -5 178 40T69 166T30 352Q30 441 58 516T136 647T255 734T403 765Q466 765 523 746T620 690Q602 667 571 636T511 581Q476 619 450 640T400 671T349 680Q277 680 238 625T195 463Q240 482
289 492T383 503Q459 503 516 474T607 393T640 273Q640 216 617 166T551 77T455 17T337 -5ZM310 408Q248 408 199 373Q208 291 234 225T299 119T381 80Q413 80 440 100T483 153T500 225Q500 274 474 315T404 382T310 408Z" />
<glyph unicode="7" glyph-name="seven" horiz-adv-x="640" d="M41 441Q41 479 40 536T36 658T30 785Q59 790 111 792T214 795Q213 778 212 757Q342 757 434 756T590 753Q587 687 580 595T563 399T542 190T518 -4Q466 -4 416 -2T332 4Q386 277 434 690Q389 690
327 686T209 674Q206 614 205 553T203 449Q174 445 130 443T41 441Z" />
<glyph unicode="8" glyph-name="eight" horiz-adv-x="670" d="M324 -5Q264 -5 211 9T118 50T54 109T30 181Q30 212 49 242T114 308T237 389Q171 434 132 468T77 530T60 587Q60 636 99 676T202 740T345 765Q421 765 483 743T583 682T620 597Q620 556 585 517T463
425Q559 364 599 315T640 213Q640 168 615 129T547 60T446 12T324 -5ZM217 617Q217 599 231 581T281 537T380 475Q424 506 443 529T463 575Q463 601 441 624T384 661T308 675Q267 675 242 659T217 617ZM363 85Q412 85 440 106T469 163Q469 198 435 237T314 336Q251
296 226 266T201 205Q201 172 223 145T282 102T363 85Z" />
<glyph unicode="9" glyph-name="nine" horiz-adv-x="670" d="M289 -5Q253 -5 212 1T131 17T60 40Q78 95 108 146Q236 80 303 80Q372 80 416 137T471 296Q427 277 378 267T283 257Q207 257 150 285T62 363T30 481Q30 539 53 590T116 681T210 742T325 765Q393 765
450 737T550 657T616 536T640 384Q640 270 595 183T471 45T289 -5ZM170 541Q170 505 186 472T231 411T293 368T365 352Q425 352 474 389Q471 475 448 540T387 643T301 680Q266 680 236 661T188 611T170 541Z" />
<glyph unicode=":" glyph-name="colon" horiz-adv-x="274" d="M68 542Q59 645 52 718Q85 723 132 726T217 730Q220 661 221 623T222 555Q188 554 152 551T68 542ZM201 30Q160 34 119 36T50 39Q54 81 57 128T61 216Q103 216 146 213T224 203Q219 151 214 110T201 30Z" />
<glyph unicode=";" glyph-name="semicolon" horiz-adv-x="340" d="M68 542Q64 589 61 632T52 718Q86 723 133 726T217 730Q219 675 220 633T222 555Q179 553 141 550T68 542ZM142 -26L99 15L153 73Q135 99 110 127T50 186Q76 214 108 241T167 288Q202 243 233
197T290 104Q256 76 217 42T142 -26Z" />
<glyph unicode="&lt;" glyph-name="less" horiz-adv-x="485" d="M324 112L50 373L366 648L420 598L232 408L435 240L324 112Z" />
<glyph unicode="=" glyph-name="equal" horiz-adv-x="500" d="M50 430V520H450V430H50ZM50 240V330H450V240H50Z" />
<glyph unicode="&gt;" glyph-name="greater" horiz-adv-x="485" d="M119 112L65 162L253 352L50 520L161 648L435 387L119 112Z" />
<glyph unicode="?" glyph-name="question" horiz-adv-x="550" d="M217 179Q221 250 239 308T286 415Q311 456 325 501T339 596Q339 651 324 682T283 714Q249 714 229 656T205 508L50 519Q50 644 112 717T283 790Q384 790 442 727T500 556Q500 448 431 366Q364
285 350 179H217ZM213 -31V93H353V-31H213Z" />
<glyph unicode="@" glyph-name="at" horiz-adv-x="900" d="M434 -1Q320 -1 234 45T99 173T50 363Q50 450 81 522T168 648T301 731T468 761Q551 761 621 737T742 668T822 563T850 430Q850 358 823 298T751 201T652 164Q628 164 602 171T554 190T521 216Q482 162
421 162Q375 162 336 191T272 267T248 368Q248 441 293 496T416 583T598 615Q598 521 600 439T605 297T613 212Q676 212 710 258T744 391Q744 484 707 554T602 664T447 704Q361 704 296 666T193 562T156 407Q156 335 181 272T250 160T351 84T474 56Q520 56 563
71T657 120L688 73Q648 39 579 19T434 -1ZM438 238Q465 238 477 310T490 539Q435 536 400 496T364 393Q364 358 375 322T404 262T438 238Z" />
<glyph unicode="A" glyph-name="A" horiz-adv-x="750" d="M289 156Q263 156 236 156T179 159Q157 81 135 -4L15 4Q71 193 140 385T287 760Q324 764 369 767T463 770Q524 622 593 428T735 10Q677 0 626 -5T521 -10Q500 74 474 167Q385 156 289 156ZM328 653Q307
596 276 495T206 258Q246 253 288 251T380 249Q398 249 416 249T451 250Q429 330 407 405T364 544T328 653Z" />
<glyph unicode="B" glyph-name="B" horiz-adv-x="624" d="M202 -5Q171 -5 134 -3T59 5Q58 28 57 77T55 193T53 335T52 486T51 631T50 752Q104 758 153 761T245 765Q395 765 478 720T561 592Q561 486 417 427Q502 404 553 350T604 228Q604 161 553 108T411 25T202
-5ZM207 692Q207 547 209 425Q265 434 307 454T374 504T399 565Q399 600 373 628T303 674T207 692ZM225 66Q279 66 325 83T399 128T427 193Q427 232 397 269T317 334T211 368Q215 190 225 66Z" />
<glyph unicode="C" glyph-name="C" horiz-adv-x="690" d="M378 -5Q272 -5 192 41T66 169T20 359Q20 445 49 519T129 648T251 734T402 765Q487 765 561 732T680 641Q607 556 544 522Q467 673 359 673Q286 673 242 612T197 448Q197 381 215 317T265 200T336 118T417
87Q447 87 479 102T539 145T587 207L680 134Q558 -5 378 -5Z" />
<glyph unicode="D" glyph-name="D" horiz-adv-x="690" d="M172 -5Q143 -5 112 -4T50 0Q50 109 50 219T51 430T53 614T57 755Q96 760 133 762T205 765Q435 765 552 671T670 392Q670 198 542 97T172 -5ZM227 78Q322 78 380 105T466 193T493 352Q493 509 430 590T233
684Q232 657 231 603T230 479T229 335T228 194T227 78Z" />
<glyph unicode="E" glyph-name="E" horiz-adv-x="637" d="M602 -5Q567 -2 491 0T308 4T76 5Q74 33 72 90T66 222T60 376T55 530T52 663T50 750Q94 750 151 750T272 752T397 754T512 757T603 760L607 653L250 665Q250 606 250 546T251 427L587 438L583 328L252
342Q253 271 254 207T257 91L606 103L602 -5Z" />
<glyph unicode="F" glyph-name="F" horiz-adv-x="610" d="M250 -5L50 2Q50 42 50 106T51 246T53 401T55 550T57 674T59 750Q127 750 203 751T351 753T484 756T580 760L576 662L238 676Q242 569 244 464L565 474L558 366L246 384Q250 182 250 -5Z" />
<glyph unicode="G" glyph-name="G" horiz-adv-x="748" d="M363 -5Q263 -5 186 42T64 172T20 363Q20 451 49 524T133 652T260 735T422 765Q511 765 585 735T700 654Q634 579 567 534Q497 678 373 678Q290 678 243 614T196 433Q196 361 213 298T261 187T330 111T415
83Q449 83 474 97T504 134Q503 156 501 188T495 257T488 327Q403 329 363 332L360 408Q465 408 560 410T728 416L725 324Q691 324 659 324Q662 281 663 224T665 110Q628 75 578 49T473 9T363 -5Z" />
<glyph unicode="H" glyph-name="H" horiz-adv-x="740" d="M50 -2Q50 103 50 210T51 417T53 603T57 756Q115 756 155 755T228 752Q228 579 230 424Q366 425 505 434Q505 508 505 588T505 752Q592 758 681 758Q684 675 686 577T688 375T689 175T690 -2Q638 -2 592
-1T499 2Q501 56 502 140T504 330Q411 330 346 331T231 336Q234 151 240 2Q196 0 150 -1T50 -2Z" />
<glyph unicode="I" glyph-name="I" horiz-adv-x="360" d="M70 -1Q82 242 82 493Q82 535 82 585T81 681T79 753Q91 755 119 756T182 757Q209 757 235 756T281 753Q279 691 278 629T277 512T276 415Q276 279 279 179T290 2Q236 0 181 0T70 -1Z" />
<glyph unicode="J" glyph-name="J" horiz-adv-x="586" d="M269 -5Q128 -5 10 54L31 132Q117 102 159 91T227 79Q258 79 279 96T314 157T332 279T338 478Q338 543 337 612T333 752Q434 758 534 758Q535 744 535 715T535 650T536 582Q536 404 524 289T481 110T399
21T269 -5Z" />
<glyph unicode="K" glyph-name="K" horiz-adv-x="710" d="M50 -4Q50 35 50 99T50 240T51 397T51 550T53 678T55 759L235 753Q232 673 231 573T228 368Q306 456 380 555T530 770L666 740Q578 621 464 497Q503 429 544 349T623 183T695 13Q642 4 590 0T482 -5Q466
47 444 109T394 238T339 367Q285 313 227 259Q226 189 226 124T226 2L50 -4Z" />
<glyph unicode="L" glyph-name="L" horiz-adv-x="640" d="M625 -5Q602 -4 549 -3T421 -2T255 -1T67 0Q58 206 54 392T50 754Q73 755 130 755T258 756Q258 683 258 595T256 415T253 236T248 74Q352 74 450 76T622 83L625 -5Z" />
<glyph unicode="M" glyph-name="M" horiz-adv-x="900" d="M75 759Q131 765 178 768T267 772Q290 697 320 615T383 450T452 290Q504 402 551 520T645 771Q699 771 752 768T842 760Q842 705 842 630T843 468T845 295T847 133T850 2Q827 1 794 0T725 -1T658 -2Q662
99 664 200T667 398T669 576Q627 458 583 351T488 140L334 131Q277 255 228 368T141 580L163 -2L50 2Q53 55 56 123T61 266T66 415T71 557T74 677T75 759Z" />
<glyph unicode="N" glyph-name="N" horiz-adv-x="760" d="M50 3Q50 48 51 112T53 251T57 402T61 548T66 671T70 753Q96 755 143 756T262 757Q344 636 433 500T616 208L594 758Q620 758 650 757T710 753Q710 669 709 574T707 384T704 210T701 74T697 2Q676 1 641
0T569 -1T510 -2Q431 127 335 270T140 554L166 -3Q110 -3 50 3Z" />
<glyph unicode="O" glyph-name="O" horiz-adv-x="760" d="M380 -5Q302 -5 237 23T123 104T47 226T20 380Q20 463 47 533T122 656T236 736T380 765Q458 765 524 737T638 656T713 534T740 380Q740 297 714 227T639 104T524 24T380 -5ZM401 79Q450 79 486 112T542
205T562 345Q562 440 535 516T462 636T359 681Q311 681 275 648T218 555T198 415Q198 321 225 245T298 124T401 79Z" />
<glyph unicode="P" glyph-name="P" horiz-adv-x="650" d="M55 -2Q55 136 55 257T54 478T52 647T50 750Q109 758 157 762T249 766Q367 766 452 738T584 656T630 528Q630 450 580 388T440 289T233 248Q234 186 234 124T235 2Q201 0 158 -1T55 -2ZM219 687Q223 632
226 537T232 329Q445 358 445 507Q445 590 384 638T219 687Z" />
<glyph unicode="Q" glyph-name="Q" horiz-adv-x="760" d="M380 -5Q302 -5 237 23T123 104T47 226T20 380Q20 463 47 533T122 656T236 736T380 765Q458 765 524 737T638 656T713 534T740 380Q740 307 719 244T661 131Q705 78 730 13Q707 0 675 -13T609 -36T547
-53Q534 -10 522 23Q456 -5 380 -5ZM198 415Q198 346 213 286T254 181Q326 259 422 259Q485 259 548 225Q562 279 562 345Q562 440 535 516T462 636T359 681Q311 681 275 648T218 555T198 415ZM401 79Q446 79 481 108Q444 165 395 165Q346 165 312 112Q354 79 401
79Z" />
<glyph unicode="R" glyph-name="R" horiz-adv-x="665" d="M447 -11Q393 125 337 217T231 349Q233 265 234 175T235 -2Q190 -2 141 -1T55 2Q55 87 55 179T55 360T53 528T52 664T50 750Q101 758 151 761T246 765Q358 765 442 742T573 675T620 569Q620 524 596 483T529
412T434 370Q450 351 474 317T524 240T576 154T621 74T650 13Q634 10 607 6T549 -1T491 -7T447 -11ZM219 687Q222 642 225 564T231 390Q330 394 387 431T445 531Q445 576 416 611T335 667T219 687Z" />
<glyph unicode="S" glyph-name="S" horiz-adv-x="650" d="M328 -5Q273 -5 215 10T104 51T15 112Q38 145 66 178T128 245Q167 203 214 168T308 110T396 88Q432 88 460 107T489 164Q489 199 462 226T392 277T299 324Q256 344 214 366T138 414T83 472T62 546Q62 587
83 626T144 696T236 746T354 765Q427 765 501 740T631 668Q613 634 583 601T523 545Q462 603 402 642T289 682Q250 682 231 663T211 621Q211 597 233 577T291 538T370 499Q415 478 461 454T547 400T611 330T635 241Q635 191 611 147T544 68T446 15T328 -5Z" />
<glyph unicode="T" glyph-name="T" horiz-adv-x="770" d="M486 -2Q461 -2 425 -2T351 0T285 2Q285 47 285 112T286 253T287 404T289 546T291 660Q216 659 145 659T15 658L19 758Q83 758 157 758T308 757T457 756T591 755T694 754T752 752L755 668Q700 666 629
665T480 662Q481 617 482 554T483 418T484 269T485 124T486 -2Z" />
<glyph unicode="U" glyph-name="U" horiz-adv-x="733" d="M372 -5Q277 -5 212 28T106 136T48 331T30 629Q30 669 31 702T33 757Q98 757 147 756T232 753Q229 662 229 584Q229 404 247 298T306 145T416 99Q480 99 517 137T571 264T588 502Q588 549 587 607T581
754L700 758Q702 729 702 692T703 614Q703 440 686 322T631 131T529 27T372 -5Z" />
<glyph unicode="V" glyph-name="V" horiz-adv-x="750" d="M287 -10Q224 145 155 340T15 750Q76 761 127 765T229 770Q252 680 277 585T329 400T380 234T422 107Q444 167 475 268T542 497T615 766L735 758Q680 567 611 374T463 0L287 -10Z" />
<glyph unicode="W" glyph-name="W" horiz-adv-x="900" d="M340 -8L165 -2Q119 168 81 361T15 750Q126 770 226 770Q234 686 243 600T263 434T283 286T302 167Q346 362 373 514T408 750Q450 755 491 757T566 760Q574 709 589 634T630 446T696 167Q712 248 725 333T750
500T768 650T777 766L885 758Q867 629 843 497T792 237T735 -2L589 -8Q557 109 528 228T472 454Q445 347 412 232T340 -8Z" />
<glyph unicode="X" glyph-name="X" horiz-adv-x="730" d="M151 -5L35 5Q139 166 276 361Q145 562 15 748Q48 752 87 755T164 760T230 762Q269 708 310 648T393 525Q475 639 565 760L675 750Q554 585 450 437Q520 330 587 220T715 6Q670 1 615 -2T510 -6Q469 60
425 130T335 271Q233 122 151 -5Z" />
<glyph unicode="Y" glyph-name="Y" horiz-adv-x="770" d="M488 -2Q455 -2 417 -2T345 0T286 2Q286 50 287 109T290 229T294 340Q239 412 185 486T87 626T15 734Q44 744 98 753T217 770Q251 703 306 612T432 417Q489 501 542 589T643 767L755 743Q722 688 677 621T580
483T477 344Q480 296 482 237T486 116T488 -2Z" />
<glyph unicode="Z" glyph-name="Z" horiz-adv-x="660" d="M630 -2Q575 -2 506 -2T366 -2T230 -1T118 0T52 2L30 89Q159 270 255 417T421 683Q367 681 303 677T173 669T52 658L45 758Q125 758 207 758T364 758T498 756T593 754L615 683Q584 628 548 568T468 437T368
277T241 78Q335 82 435 89T626 105L630 -2Z" />
<glyph unicode="[" glyph-name="bracketleft" horiz-adv-x="500" d="M150 -60V820H450V740H310V20H450V-60H150Z" />
<glyph unicode="\" glyph-name="backslash" horiz-adv-x="543" d="M383 -30L30 745L160 790L513 15L383 -30Z" />
<glyph unicode="]" glyph-name="bracketright" horiz-adv-x="500" d="M50 -60V20H190V740H50V820H350V-60H50Z" />
<glyph unicode="^" glyph-name="asciicircum" horiz-adv-x="550" d="M90 646L50 681L275 890L500 681L460 646L275 755L90 646Z" />
<glyph unicode="_" glyph-name="underscore" horiz-adv-x="500" d="M50 -80V10H450V-80H50Z" />
<glyph unicode="`" glyph-name="grave" horiz-adv-x="320" d="M294 737L10 827L72 923L310 777L294 737Z" />
<glyph unicode="a" glyph-name="a" horiz-adv-x="630" d="M222 -5Q137 -5 84 36T30 145Q30 206 74 258T198 346T379 397Q343 485 280 485Q242 485 182 456T60 380L30 480Q179 565 312 565Q416 565 479 509T571 329T600 2Q581 1 533 0T428 -2Q428 30 427 61Q324
-5 222 -5ZM195 152Q195 121 219 103T285 85Q357 85 424 147Q418 253 401 326Q362 318 326 300T260 258T213 206T195 152Z" />
<glyph unicode="b" glyph-name="b" horiz-adv-x="600" d="M217 -2Q174 -2 129 -1T55 2Q54 25 54 75T53 194T52 338T51 492T50 638T50 757Q73 757 104 757T168 755T222 753Q222 659 222 523Q282 565 348 565Q412 565 462 529T541 431T570 288Q570 207 540 141T458
35T342 -5Q283 -5 218 30Q217 10 217 -2ZM302 483Q258 483 221 433Q221 358 221 284T219 148Q236 114 262 95T319 75Q366 75 392 123T419 256Q419 321 404 372T362 453T302 483Z" />
<glyph unicode="c" glyph-name="c" horiz-adv-x="590" d="M321 -5Q262 -5 210 17T117 79T53 169T30 278Q30 337 53 388T119 480T215 542T332 565Q462 565 580 457L485 353Q453 412 404 448T306 485Q254 485 223 441T191 323Q191 256 214 200T278 111T365 77Q406
77 446 103T514 173L575 113Q457 -5 321 -5Z" />
<glyph unicode="d" glyph-name="d" horiz-adv-x="600" d="M252 -5Q189 -5 139 31T59 130T30 272Q30 354 60 420T143 525T258 565Q315 565 378 532Q378 665 378 757Q401 757 432 757T496 755T550 753Q550 702 550 632T550 481T549 323T548 176T547 61T545 -2Q502
-2 457 -1T383 2Q383 15 382 39Q320 -5 252 -5ZM181 304Q181 239 196 188T238 107T298 77Q343 77 381 130Q380 189 380 263T379 415Q362 448 337 466T281 485Q234 485 208 438T181 304Z" />
<glyph unicode="e" glyph-name="e" horiz-adv-x="620" d="M315 -5Q234 -5 170 32T68 134T30 281Q30 363 66 427T166 528T311 565Q387 565 447 532T545 438T590 297L193 223Q212 158 253 118T345 77Q392 77 438 109T509 193L580 133Q531 67 462 31T315 -5ZM180
321Q180 315 180 311L413 343Q406 407 372 446T289 485Q238 485 209 442T180 321Z" />
<glyph unicode="f" glyph-name="f" horiz-adv-x="440" d="M105 -2Q105 156 108 273T121 474H36L30 566H135Q153 648 186 690T272 749T405 770L401 685Q354 685 329 661T291 566H410L404 474H281Q278 429 277 371T276 240Q276 176 277 117T280 2Q238 1 191 0T105 -2Z" />
<glyph unicode="g" glyph-name="g" horiz-adv-x="620" d="M119 -130L116 -50Q197 -46 251 -33T338 6T388 80Q323 35 246 35Q182 35 133 66T57 152T30 281Q30 360 60 424T143 527T258 565Q290 565 325 555T397 528Q396 540 395 553Q439 555 478 556T567 557Q570
472 570 405Q570 275 558 182T517 29T437 -67T307 -116T119 -130ZM181 315Q181 230 215 180T306 130Q381 130 409 216Q410 239 410 266Q410 294 409 325T406 395Q387 433 355 456T286 480Q237 480 209 436T181 315Z" />
<glyph unicode="h" glyph-name="h" horiz-adv-x="630" d="M217 -2Q180 -2 134 -1T55 2Q54 25 54 74T53 191T52 333T51 485T50 631T50 753Q72 754 103 755T166 756T222 757Q222 710 222 648T221 516Q256 539 294 552T370 565Q488 565 544 428T600 2Q575 0 536 -1T428
-2Q428 485 323 485Q297 485 270 459T221 392Q220 323 220 259T219 140T218 49T217 -2Z" />
<glyph unicode="i" glyph-name="i" horiz-adv-x="272" d="M51 625V760H221V625H51ZM55 -2Q54 31 53 87T52 217T51 375T50 547Q95 547 144 546T222 543Q222 470 222 390T221 235T219 98T217 2Q171 0 129 -1T55 -2Z" />
<glyph unicode="j" glyph-name="j" horiz-adv-x="355" d="M126 625V760H296V625H126ZM60 -130L10 -40Q76 -11 106 72T137 307Q137 349 135 408T127 543Q164 545 207 546T299 547Q305 441 305 363Q305 207 280 105T200 -55T60 -130Z" />
<glyph unicode="k" glyph-name="k" horiz-adv-x="630" d="M55 -2Q54 21 54 74T53 198T52 348T51 505T50 649T50 757Q94 757 141 756T222 753Q222 709 222 643T222 499T221 344Q275 388 327 434T424 521T498 595L587 535Q555 505 514 470T425 399Q445 363 470 315T523
213T575 107T620 10L428 -10Q398 76 366 158T301 306Q261 277 220 250Q219 164 219 97T217 2Q191 0 153 -1T55 -2Z" />
<glyph unicode="l" glyph-name="l" horiz-adv-x="320" d="M222 757Q220 700 219 645T218 543Q218 385 227 285T257 131T310 60L240 -20Q186 -14 150 15T91 104T60 259T50 491Q50 548 51 615T55 753Q84 755 124 756T222 757Z" />
<glyph unicode="m" glyph-name="m" horiz-adv-x="890" d="M192 -2Q170 -2 138 -2T77 0T30 2Q30 127 30 238T32 432T35 557Q67 557 110 556T187 553Q188 532 189 496Q271 565 353 565Q395 565 426 547T478 489Q557 565 650 565Q757 565 808 454T860 112Q860 85
860 60T857 4Q829 0 782 -2T685 -4Q688 38 689 86T691 181Q691 336 673 410T616 485Q590 485 560 454T511 377Q519 330 522 269T526 131Q526 65 523 2Q503 1 473 0T410 -1T351 -2Q354 51 355 112T357 228Q357 323 352 379T334 460T299 485Q272 485 242 453T190
374Q191 297 191 201T192 -2Z" />
<glyph unicode="n" glyph-name="n" horiz-adv-x="631" d="M35 -2Q34 30 33 86T32 217T31 378T30 557Q52 557 84 557T148 555T202 553Q202 528 202 502Q287 565 375 565Q456 565 506 508T578 326T601 -2Q578 -2 546 -2T483 0T429 2Q429 179 419 285T386 438T324
485Q292 485 259 458T202 387Q201 302 201 226T199 92T197 2Q166 1 122 0T35 -2Z" />
<glyph unicode="o" glyph-name="o" horiz-adv-x="640" d="M312 -5Q233 -5 169 32T68 132T30 272Q30 333 53 386T117 479T213 542T328 565Q407 565 471 528T572 429T610 288Q610 227 587 174T523 81T428 18T312 -5ZM341 76Q394 76 424 121T454 248Q454 316 434
369T379 453T299 484Q246 484 216 439T186 312Q186 245 206 192T261 107T341 76Z" />
<glyph unicode="p" glyph-name="p" horiz-adv-x="600" d="M217 -117Q180 -117 134 -116T55 -113Q54 -85 54 -29T52 100T51 254T50 412T50 553Q72 554 103 555T166 556T222 557Q222 541 222 524Q282 565 348 565Q412 565 462 529T541 431T570 288Q570 207 540 141T458
35T342 -5Q284 -5 219 29Q219 -20 219 -58T217 -117ZM302 483Q259 483 222 434Q222 365 222 291T220 146Q237 113 263 94T319 75Q366 75 392 123T419 256Q419 321 404 372T362 453T302 483Z" />
<glyph unicode="q" glyph-name="q" horiz-adv-x="600" d="M252 -5Q189 -5 139 31T59 130T30 272Q30 354 60 420T143 525T258 565Q317 565 382 530Q383 546 383 557Q417 557 463 556T545 553Q546 525 546 467T548 332T549 175T550 18T550 -113Q528 -114 496 -115T433
-116T378 -117Q378 -52 378 37Q318 -5 252 -5ZM181 304Q181 239 196 188T238 107T298 77Q342 77 379 126Q379 201 379 275T381 412Q364 446 338 465T281 485Q234 485 208 438T181 304Z" />
<glyph unicode="r" glyph-name="r" horiz-adv-x="585" d="M197 -2Q162 -2 118 -1T35 2Q34 32 33 88T32 218T31 378T30 553Q52 554 84 555T148 556T202 557Q202 528 202 499Q241 530 282 547T363 565Q414 565 456 538T524 463T555 357Q515 344 475 334T399 318Q399
363 388 401T357 462T315 485Q288 485 255 452T202 371Q201 244 200 145T197 -2Z" />
<glyph unicode="s" glyph-name="s" horiz-adv-x="610" d="M316 -5Q275 -5 223 1T120 18T30 41L74 162Q112 140 158 121T250 89T327 77Q370 77 390 96T410 138Q410 164 388 181T331 212T254 238Q217 249 180 262T113 292T64 335T45 395Q45 440 77 478T168 541T308
565Q374 565 441 548T565 500L509 405Q454 440 403 462T305 485Q261 485 238 466T215 427Q215 408 233 396T281 374T347 356Q386 347 427 335T503 303T559 255T580 181Q580 127 546 85T453 19T316 -5Z" />
<glyph unicode="t" glyph-name="t" horiz-adv-x="460" d="M149 -2Q148 19 148 65T147 177T146 318T145 474H36L30 566H144Q144 667 144 757Q181 757 230 756T316 753Q316 667 316 566H430L424 474H315Q315 396 315 321T314 181T313 70T311 2Q277 0 236 -1T149 -2Z" />
<glyph unicode="u" glyph-name="u" horiz-adv-x="630" d="M253 -5Q30 -5 30 402Q30 470 36 548Q60 550 101 551T208 552Q202 452 202 374Q202 220 226 148T302 75Q336 75 370 103T430 177Q429 256 429 354T428 557Q469 557 518 556T600 553Q600 472 600 389T599
230T597 95T595 2Q556 0 514 -1T433 -2Q432 22 431 60Q345 -5 253 -5Z" />
<glyph unicode="v" glyph-name="v" horiz-adv-x="620" d="M231 -9Q174 123 117 267T10 544Q70 553 120 558T206 566Q235 458 273 343T355 114Q400 224 438 339T504 562L610 548Q558 403 502 264T389 -1Q351 -5 310 -7T231 -9Z" />
<glyph unicode="w" glyph-name="w" horiz-adv-x="824" d="M309 -3Q233 -3 161 3Q143 58 123 126T82 267T43 413T10 549Q129 561 186 561Q204 453 227 338T275 124Q304 252 326 359T364 553Q389 554 422 555T488 556T540 557Q559 447 582 335T629 124Q656 243 679
353T718 558L814 552Q791 452 765 353T713 164T663 3Q614 -3 515 -3Q491 72 464 165T413 351Q387 250 360 159T309 -3Z" />
<glyph unicode="x" glyph-name="x" horiz-adv-x="630" d="M140 -3L30 3Q63 50 116 120T230 267Q117 416 10 544Q39 549 77 553T154 561T216 566Q241 536 273 494T341 405Q376 448 409 488T471 561L590 549Q553 508 504 449T400 325Q447 260 491 198T570 85T620
8Q580 1 529 -3T431 -8Q398 40 363 89T290 188Q247 136 209 87T140 -3Z" />
<glyph unicode="y" glyph-name="y" horiz-adv-x="620" d="M80 -132L70 -38Q123 -35 165 -25T243 8Q201 92 158 187T77 374T10 544Q46 550 100 556T206 566Q231 489 272 381T361 154Q394 221 424 321T489 562L610 548Q561 368 508 241T392 32T252 -88T80 -132Z" />
<glyph unicode="z" glyph-name="z" horiz-adv-x="610" d="M580 -4Q461 -4 355 -3T169 0T49 4L30 103Q65 134 108 179T199 276T292 382T373 482Q318 482 257 480T141 473T45 465L38 560Q122 560 202 560T351 558T472 554T551 550L572 453Q527 399 469 333T348 200T227
74Q320 74 413 79T574 91L580 -4Z" />
<glyph unicode="{" glyph-name="braceleft" horiz-adv-x="585" d="M535 -65Q459 -65 397 -36T297 43T260 154Q260 207 231 268T150 380Q201 431 230 492T260 606Q260 667 297 716T396 795T535 825V765Q485 765 453 720T420 605Q420 535 383 483T260 380Q345 330
382 278T420 155Q420 85 452 40T535 -5V-65Z" />
<glyph unicode="|" glyph-name="bar" horiz-adv-x="260" d="M50 -70V830H210V-70H50Z" />
<glyph unicode="}" glyph-name="braceright" horiz-adv-x="585" d="M50 -65V-5Q100 -5 132 40T165 155Q165 225 202 277T325 380Q240 430 203 482T165 605Q165 675 133 720T50 765V825Q127 825 189 796T288 717T325 606Q325 553 354 492T435 380Q384 329 355 268T325
154Q325 93 288 44T189 -35T50 -65Z" />
<glyph unicode="~" glyph-name="asciitilde" horiz-adv-x="510" d="M332 659Q283 659 234 711Q188 760 151 760Q136 760 122 750T80 708L50 762Q111 861 178 861Q227 861 276 809Q322 760 359 760Q374 760 388 770T430 812L460 758Q399 659 332 659Z" />
<glyph unicode="&#xa0;" glyph-name="uni00A0" horiz-adv-x="400" />
<glyph unicode="&#xa1;" glyph-name="exclamdown" horiz-adv-x="278" d="M209 790V666H69V790H209ZM205 580Q216 435 222 284T228 -31H50Q50 133 55 284T72 580H205Z" />
<glyph unicode="&#xa2;" glyph-name="cent" horiz-adv-x="650" d="M290 -32V11Q223 21 169 58T82 151T50 272Q50 337 82 396T170 498T290 559V608H390V566Q437 561 486 535T600 457L505 353Q486 389 455 420T390 469V84Q471 84 534 173L595 113Q550 74 497 48T390
13V-32H290ZM196 326Q196 263 222 208T290 121V489Q248 479 222 435T196 326Z" />
<glyph unicode="&#xa3;" glyph-name="sterling" horiz-adv-x="695" d="M50 325V415H142Q155 583 226 676T418 770Q485 770 542 741T640 658L508 559Q480 630 455 660T399 690Q358 690 339 640T320 479Q320 446 318 415H550V325H309Q287 188 215 87L645 101L638
-9L73 10L50 104Q94 125 116 178T140 325H50Z" />
<glyph unicode="&#xa4;" glyph-name="currency" horiz-adv-x="736" d="M119 67L55 131L144 210Q98 277 98 375Q98 456 130 518L50 586L162 698L230 618Q292 650 373 650Q471 650 538 604L617 693L681 629L592 550Q638 483 638 385Q638 304 606 242L686 174L574
62L506 142Q444 110 363 110Q265 110 198 156L119 67ZM391 180Q434 180 461 224T488 340Q488 403 468 457T416 546T345 580Q302 580 275 536T248 420Q248 358 268 303T321 214T391 180Z" />
<glyph unicode="&#xa5;" glyph-name="yen" horiz-adv-x="710" d="M105 155V245H276V325H105V415H230L50 709L212 782L392 450L563 776L660 715L470 415H605V325H444L441 245H605V155H437L431 -2L276 3V155H105Z" />
<glyph unicode="&#xa6;" glyph-name="brokenbar" horiz-adv-x="260" d="M50 455V830H210V455H50ZM50 -70V305H210V-70H50Z" />
<glyph unicode="&#xa7;" glyph-name="section" horiz-adv-x="638" d="M252 -6Q208 -6 163 -1T79 13L102 102Q142 90 178 85T243 79Q293 79 324 92T355 125Q355 147 320 164T236 200Q194 216 151 235T79 281T50 343Q50 383 88 427T182 506Q135 527 102 555T69 623Q69
659 96 685T169 730T271 757T386 766Q430 766 475 761T559 747L536 658Q496 670 460 675T395 681Q345 681 314 668T283 635Q283 613 318 596T402 560Q445 544 487 525T559 479T588 417Q588 377 550 333T457 254Q503 233 536 205T569 137Q569 101 542 75T469 30T367
3T252 -6ZM223 378Q223 353 258 334T343 297Q375 311 395 336T415 382Q415 407 380 426T295 463Q263 449 243 424T223 378Z" />
<glyph unicode="&#xa8;" glyph-name="dieresis" horiz-adv-x="350" d="M220 753V897H340V753H220ZM10 753V897H130V753H10Z" />
<glyph unicode="&#xa9;" glyph-name="copyright" horiz-adv-x="1000" d="M484 -1Q402 -1 332 26T210 103T129 219T100 364Q100 447 132 519T221 645T353 730T516 761Q598 761 668 734T790 657T871 541T900 396Q900 313 868 241T779 115T647 30T484 -1ZM524 56Q606
56 666 92T760 196T794 353Q794 455 753 534T641 659T476 704Q394 704 334 668T240 565T206 407Q206 305 247 226T360 102T524 56ZM502 149Q439 149 386 179T300 258T268 367Q268 414 289 458T347 536T429 591T525 611Q572 611 617 590T722 520L644 434Q616 485
572 517T486 549Q441 549 413 513T384 417Q384 364 406 318T465 244T544 215Q577 215 610 234T668 285L718 235Q671 195 614 172T502 149Z" />
<glyph unicode="&#xaa;" glyph-name="ordfeminine" horiz-adv-x="471" d="M175 417Q120 417 86 444T51 514Q51 553 80 587T160 645T277 678Q254 735 213 735Q188 735 149 717T70 667L51 732Q147 787 234 787Q301 787 342 751T402 634T421 421Q408 420 377 420T309
419Q309 440 309 459Q242 417 175 417ZM158 519Q158 499 174 487T216 475Q263 475 306 515Q302 585 291 632Q258 626 228 608T178 565T158 519Z" />
<glyph unicode="&#xab;" glyph-name="guillemotleft" horiz-adv-x="644" d="M544 100L290 380L544 660L594 620L435 380L594 140L544 100ZM340 105L50 380L340 655L385 620L210 380L385 140L340 105Z" />
<glyph unicode="&#xac;" glyph-name="logicalnot" horiz-adv-x="600" d="M390 165V355H50V435H550V165H390Z" />
<glyph unicode="&#xad;" glyph-name="uni00AD" horiz-adv-x="450" d="M50 335V425H400V335H50Z" />
<glyph unicode="&#xae;" glyph-name="registered" horiz-adv-x="1000" d="M484 -1Q402 -1 332 26T210 103T129 219T100 364Q100 447 132 519T221 645T353 730T516 761Q598 761 668 734T790 657T871 541T900 396Q900 313 868 241T779 115T647 30T484 -1ZM524 56Q606
56 666 92T760 196T794 353Q794 455 753 534T641 659T476 704Q394 704 334 668T240 565T206 407Q206 305 247 226T360 102T524 56ZM607 147L439 368L449 152L319 157V618Q339 623 375 625T444 628Q522 628 580 612T671 568T704 501Q704 424 575 378L728 186L607
147ZM430 581L438 390Q509 407 546 433T584 491Q584 526 541 551T430 581Z" />
<glyph unicode="&#xaf;" glyph-name="overscore" horiz-adv-x="360" d="M10 780V860H350V780H10Z" />
<glyph unicode="&#xb0;" glyph-name="degree" horiz-adv-x="522" d="M261 435Q198 435 151 460T77 531T50 636Q50 696 76 741T149 813T259 839Q323 839 370 814T445 743T472 637Q472 577 446 532T372 461T261 435ZM267 493Q295 493 314 528T334 613Q334 653 322
691T290 755T251 781Q234 781 220 763T197 715T188 648Q188 607 199 572T228 515T267 493Z" />
<glyph unicode="&#xb1;" glyph-name="plusminus" horiz-adv-x="500" d="M170 285V420H50V510H170V645H330V510H450V420H330V285H170ZM50 115V205H450V115H50Z" />
<glyph unicode="&#xb2;" glyph-name="uni00B2" horiz-adv-x="382" d="M349 372L29 383L21 432Q83 480 131 534T207 639T235 727Q235 755 220 772T181 790Q126 790 69 695L10 761Q39 798 84 818T180 839Q228 839 265 821T324 772T346 701Q346 645 298 581T146 434L352
447L349 372Z" />
<glyph unicode="&#xb3;" glyph-name="uni00B3" horiz-adv-x="406" d="M194 377Q82 377 10 457Q21 474 40 498T75 538Q122 481 159 455T227 428Q254 428 271 445T288 490Q288 531 246 556T126 585L151 674Q262 674 262 727Q262 753 241 773T192 793Q167 793 142
772T87 703L25 767Q59 800 110 819T216 839Q279 839 320 812T361 744Q361 709 332 681T259 644Q292 637 318 617T360 569T376 510Q376 472 352 442T287 395T194 377Z" />
<glyph unicode="&#xb4;" glyph-name="acute" horiz-adv-x="320" d="M26 737L10 777L248 923L310 827L26 737Z" />
<glyph unicode="&#xb5;" glyph-name="uni00B5" horiz-adv-x="684" d="M50 -116Q50 -56 51 20T55 179T60 337T66 472T72 563L221 558Q221 321 246 198T318 74Q365 74 389 196T413 558L563 563Q563 355 587 219T654 42L580 -20L505 66Q477 28 437 7T351 -15Q314
-15 274 -3T214 27L219 -123L50 -116Z" />
<glyph unicode="&#xb6;" glyph-name="paragraph" horiz-adv-x="645" d="M245 -30L255 275Q214 275 174 296T102 354T50 434T30 525Q30 571 50 615T109 696T201 753T320 775H595V-36L475 -40V700H375V-36L245 -30Z" />
<glyph unicode="&#xb7;" glyph-name="middot" horiz-adv-x="365" d="M113 295L100 457Q130 460 175 462T265 464Q265 430 265 395T264 335T262 301Q228 301 187 300T113 295Z" />
<glyph unicode="&#xb8;" glyph-name="cedilla" horiz-adv-x="232" d="M60 -212L46 -170Q80 -155 98 -139T117 -110Q117 -91 86 -73T10 -45Q24 -24 52 7T109 67L149 47L122 1Q164 -18 188 -44T212 -98Q212 -133 173 -162T60 -212Z" />
<glyph unicode="&#xb9;" glyph-name="uni00B9" horiz-adv-x="272" d="M202 379H84Q85 400 85 441T86 536T87 643T87 744L16 747L10 782Q69 799 114 814T198 845Q199 826 199 786T200 692T201 582T202 471T202 379Z" />
<glyph unicode="&#xba;" glyph-name="ordmasculine" horiz-adv-x="477" d="M234 417Q183 417 142 441T76 506T51 597Q51 650 77 693T147 761T244 787Q296 787 337 763T403 699T428 607Q428 555 402 512T331 443T234 417ZM253 469Q288 469 307 499T326 581Q326
647 298 691T225 735Q191 735 172 706T152 623Q152 557 181 513T253 469Z" />
<glyph unicode="&#xbb;" glyph-name="guillemotright" horiz-adv-x="644" d="M100 100L50 140L209 380L50 620L100 660L354 380L100 100ZM305 105L260 140L434 380L260 620L305 655L594 380L305 105Z" />
<glyph unicode="&#xbc;" glyph-name="onequarter" horiz-adv-x="878" d="M242 379H124Q125 400 125 441T126 536T127 643T127 744L56 747L50 782Q109 799 154 814T238 845Q239 826 239 786T240 692T241 582T242 471T242 379ZM130 -5L50 45L600 765L680 715L130
-5ZM673 -80Q672 -52 672 -17T671 51Q612 52 560 53T468 56Q468 91 469 144T472 258T477 377Q503 377 534 375T587 371Q583 330 578 279T570 179T564 96Q590 96 617 96T671 98V109Q671 154 671 203T673 298T675 375Q751 375 781 372Q779 340 777 295T772 200T768
102Q803 104 826 107L828 50Q798 50 766 50Q765 5 764 -29T763 -78Q747 -79 720 -79T673 -80Z" />
<glyph unicode="&#xbd;" glyph-name="onehalf" horiz-adv-x="837" d="M242 379H124Q125 400 125 441T126 536T127 643T127 744L56 747L50 782Q109 799 154 814T238 845Q239 826 239 786T240 692T241 582T242 471T242 379ZM139 -5L59 45L609 765L689 715L139 -5ZM784
-88L464 -77L456 -28Q518 20 566 74T642 179T670 267Q670 295 655 312T616 330Q561 330 504 235L445 301Q474 338 519 358T615 379Q663 379 700 361T759 312T781 241Q781 185 733 121T581 -26L787 -13L784 -88Z" />
<glyph unicode="&#xbe;" glyph-name="threequarters" horiz-adv-x="988" d="M234 377Q122 377 50 457Q61 474 80 498T115 538Q162 481 199 455T267 428Q294 428 311 445T328 490Q328 531 286 556T166 585L191 674Q302 674 302 727Q302 753 281 773T232 793Q207
793 182 772T127 703L65 767Q99 800 150 819T256 839Q319 839 360 812T401 744Q401 709 372 681T299 644Q332 637 358 617T400 569T416 510Q416 472 392 442T327 395T234 377ZM240 -5L160 45L710 765L790 715L240 -5ZM783 -80Q782 -52 782 -17T781 51Q722 52 670
53T578 56Q578 91 579 144T582 258T587 377Q613 377 644 375T697 371Q693 330 688 279T680 179T674 96Q700 96 727 96T781 98V109Q781 154 781 203T783 298T785 375Q861 375 891 372Q889 340 887 295T882 200T878 102Q913 104 936 107L938 50Q908 50 876 50Q875
5 874 -29T873 -78Q857 -79 830 -79T783 -80Z" />
<glyph unicode="&#xbf;" glyph-name="questiondown" horiz-adv-x="550" d="M337 790V666H197V790H337ZM333 580Q329 509 311 451T264 344Q239 303 225 258T211 163Q211 108 226 77T267 45Q302 45 321 103T345 251L500 240Q500 115 439 42T267 -31Q167 -31 109
32T50 203Q50 311 119 393Q186 474 200 580H333Z" />
<glyph unicode="&#xc0;" glyph-name="Agrave" horiz-adv-x="750" d="M289 156Q263 156 236 156T179 159Q157 81 135 -4L15 4Q71 193 140 385T287 760Q324 764 369 767T463 770Q524 622 593 428T735 10Q677 0 626 -5T521 -10Q500 74 474 167Q385 156 289 156ZM328
653Q307 596 276 495T206 258Q246 253 288 251T380 249Q398 249 416 249T451 250Q429 330 407 405T364 544T328 653ZM514 797L230 887L292 983L530 837L514 797Z" />
<glyph unicode="&#xc1;" glyph-name="Aacute" horiz-adv-x="750" d="M289 156Q263 156 236 156T179 159Q157 81 135 -4L15 4Q71 193 140 385T287 760Q324 764 369 767T463 770Q524 622 593 428T735 10Q677 0 626 -5T521 -10Q500 74 474 167Q385 156 289 156ZM328
653Q307 596 276 495T206 258Q246 253 288 251T380 249Q398 249 416 249T451 250Q429 330 407 405T364 544T328 653ZM246 797L230 837L468 983L530 887L246 797Z" />
<glyph unicode="&#xc2;" glyph-name="Acircumflex" horiz-adv-x="750" d="M289 156Q263 156 236 156T179 159Q157 81 135 -4L15 4Q71 193 140 385T287 760Q324 764 369 767T463 770Q524 622 593 428T735 10Q677 0 626 -5T521 -10Q500 74 474 167Q385 156 289 156ZM328
653Q307 596 276 495T206 258Q246 253 288 251T380 249Q398 249 416 249T451 250Q429 330 407 405T364 544T328 653ZM223 789L189 819L380 997L571 819L537 789L380 882L223 789Z" />
<glyph unicode="&#xc3;" glyph-name="Atilde" horiz-adv-x="750" d="M289 156Q263 156 236 156T179 159Q157 81 135 -4L15 4Q71 193 140 385T287 760Q324 764 369 767T463 770Q524 622 593 428T735 10Q677 0 626 -5T521 -10Q500 74 474 167Q385 156 289 156ZM328
653Q307 596 276 495T206 258Q246 253 288 251T380 249Q398 249 416 249T451 250Q429 330 407 405T364 544T328 653ZM445 807Q406 807 362 849Q321 888 291 888Q278 888 266 880T231 846L206 890Q257 969 314 969Q356 969 398 927Q437 888 468 888Q481 888 493
896T529 930L554 886Q502 807 445 807Z" />
<glyph unicode="&#xc4;" glyph-name="Adieresis" horiz-adv-x="750" d="M289 156Q263 156 236 156T179 159Q157 81 135 -4L15 4Q71 193 140 385T287 760Q324 764 369 767T463 770Q524 622 593 428T735 10Q677 0 626 -5T521 -10Q500 74 474 167Q385 156 289 156ZM328
653Q307 596 276 495T206 258Q246 253 288 251T380 249Q398 249 416 249T451 250Q429 330 407 405T364 544T328 653ZM425 813V957H545V813H425ZM215 813V957H335V813H215Z" />
<glyph unicode="&#xc5;" glyph-name="Aring" horiz-adv-x="750" d="M289 156Q263 156 236 156T179 159Q157 81 135 -4L15 4Q71 193 140 385T287 760Q324 764 369 767T463 770Q524 622 593 428T735 10Q677 0 626 -5T521 -10Q500 74 474 167Q385 156 289 156ZM328
653Q307 596 276 495T206 258Q246 253 288 251T380 249Q398 249 416 249T451 250Q429 330 407 405T364 544T328 653ZM382 748Q328 748 295 779T262 862Q262 912 294 942T378 972Q432 972 465 941T498 858Q498 809 467 779T382 748ZM386 786Q412 786 412 848Q412
886 402 910T374 934Q348 934 348 872Q348 835 359 811T386 786Z" />
<glyph unicode="&#xc6;" glyph-name="AE" horiz-adv-x="985" d="M145 -8L15 8Q60 97 113 194T225 389T342 581T456 754Q500 754 557 754T675 754T792 755T890 756T951 758L955 658L677 671Q677 608 677 546T678 424L936 442L928 328L678 337Q679 252 680 186T682
85L954 98L949 -5Q879 0 762 2T492 5Q492 78 491 150Q454 146 422 145T352 143Q328 143 297 144T216 147Q196 105 178 66T145 -8ZM275 269Q371 245 490 235Q487 358 482 464T470 646Q429 572 377 472T275 269Z" />
<glyph unicode="&#xc7;" glyph-name="Ccedilla" horiz-adv-x="690" d="M378 -5Q272 -5 192 41T66 169T20 359Q20 445 49 519T129 648T251 734T402 765Q487 765 561 732T680 641Q607 556 544 522Q467 673 359 673Q286 673 242 612T197 448Q197 381 215 317T265
200T336 118T417 87Q447 87 479 102T539 145T587 207L680 134Q558 -5 378 -5ZM320 -232L306 -190Q340 -175 358 -159T377 -130Q377 -111 346 -93T270 -65Q284 -44 312 -13T369 47L409 27L382 -19Q424 -38 448 -64T472 -118Q472 -153 433 -182T320 -232Z" />
<glyph unicode="&#xc8;" glyph-name="Egrave" horiz-adv-x="637" d="M602 -5Q567 -2 491 0T308 4T76 5Q74 33 72 90T66 222T60 376T55 530T52 663T50 750Q94 750 151 750T272 752T397 754T512 757T603 760L607 653L250 665Q250 606 250 546T251 427L587 438L583
328L252 342Q253 271 254 207T257 91L606 103L602 -5ZM462 797L178 887L240 983L478 837L462 797Z" />
<glyph unicode="&#xc9;" glyph-name="Eacute" horiz-adv-x="637" d="M602 -5Q567 -2 491 0T308 4T76 5Q74 33 72 90T66 222T60 376T55 530T52 663T50 750Q94 750 151 750T272 752T397 754T512 757T603 760L607 653L250 665Q250 606 250 546T251 427L587 438L583
328L252 342Q253 271 254 207T257 91L606 103L602 -5ZM194 797L178 837L416 983L478 887L194 797Z" />
<glyph unicode="&#xca;" glyph-name="Ecircumflex" horiz-adv-x="637" d="M602 -5Q567 -2 491 0T308 4T76 5Q74 33 72 90T66 222T60 376T55 530T52 663T50 750Q94 750 151 750T272 752T397 754T512 757T603 760L607 653L250 665Q250 606 250 546T251 427L587 438L583
328L252 342Q253 271 254 207T257 91L606 103L602 -5ZM171 789L137 819L328 997L519 819L485 789L328 882L171 789Z" />
<glyph unicode="&#xcb;" glyph-name="Edieresis" horiz-adv-x="637" d="M602 -5Q567 -2 491 0T308 4T76 5Q74 33 72 90T66 222T60 376T55 530T52 663T50 750Q94 750 151 750T272 752T397 754T512 757T603 760L607 653L250 665Q250 606 250 546T251 427L587 438L583
328L252 342Q253 271 254 207T257 91L606 103L602 -5ZM373 813V957H493V813H373ZM163 813V957H283V813H163Z" />
<glyph unicode="&#xcc;" glyph-name="Igrave" horiz-adv-x="360" d="M70 -1Q82 242 82 493Q82 535 82 585T81 681T79 753Q91 755 119 756T182 757Q209 757 235 756T281 753Q279 691 278 629T277 512T276 415Q276 279 279 179T290 2Q236 0 181 0T70 -1ZM314 797L30
887L92 983L330 837L314 797Z" />
<glyph unicode="&#xcd;" glyph-name="Iacute" horiz-adv-x="360" d="M70 -1Q82 242 82 493Q82 535 82 585T81 681T79 753Q91 755 119 756T182 757Q209 757 235 756T281 753Q279 691 278 629T277 512T276 415Q276 279 279 179T290 2Q236 0 181 0T70 -1ZM46 797L30
837L268 983L330 887L46 797Z" />
<glyph unicode="&#xce;" glyph-name="Icircumflex" horiz-adv-x="360" d="M70 -1Q82 242 82 493Q82 535 82 585T81 681T79 753Q91 755 119 756T182 757Q209 757 235 756T281 753Q279 691 278 629T277 512T276 415Q276 279 279 179T290 2Q236 0 181 0T70 -1ZM279
789L245 819L436 997L627 819L593 789L436 882L279 789Z" />
<glyph unicode="&#xcf;" glyph-name="Idieresis" horiz-adv-x="360" d="M70 -1Q82 242 82 493Q82 535 82 585T81 681T79 753Q91 755 119 756T182 757Q209 757 235 756T281 753Q279 691 278 629T277 512T276 415Q276 279 279 179T290 2Q236 0 181 0T70 -1ZM225
813V957H345V813H225ZM15 813V957H135V813H15Z" />
<glyph unicode="&#xd0;" glyph-name="Eth" horiz-adv-x="750" d="M232 -5Q203 -5 172 -4T110 0Q110 84 110 169T111 336L10 333L14 439L112 436Q113 534 114 616T117 755Q156 760 193 762T265 765Q495 765 612 671T730 392Q730 198 602 97T232 -5ZM287 78Q382
78 440 105T526 193T553 352Q553 509 490 590T293 684Q292 652 291 583T289 430L406 426L409 346L288 342Q288 267 288 197T287 78Z" />
<glyph unicode="&#xd1;" glyph-name="Ntilde" horiz-adv-x="760" d="M50 3Q50 48 51 112T53 251T57 402T61 548T66 671T70 753Q96 755 143 756T262 757Q344 636 433 500T616 208L594 758Q620 758 650 757T710 753Q710 669 709 574T707 384T704 210T701 74T697
2Q676 1 641 0T569 -1T510 -2Q431 127 335 270T140 554L166 -3Q110 -3 50 3ZM437 807Q398 807 354 849Q313 888 283 888Q270 888 258 880T223 846L198 890Q249 969 306 969Q348 969 390 927Q429 888 460 888Q473 888 485 896T521 930L546 886Q494 807 437 807Z"
/>
<glyph unicode="&#xd2;" glyph-name="Ograve" horiz-adv-x="760" d="M380 -5Q302 -5 237 23T123 104T47 226T20 380Q20 463 47 533T122 656T236 736T380 765Q458 765 524 737T638 656T713 534T740 380Q740 297 714 227T639 104T524 24T380 -5ZM401 79Q450 79 486
112T542 205T562 345Q562 440 535 516T462 636T359 681Q311 681 275 648T218 555T198 415Q198 321 225 245T298 124T401 79ZM514 797L230 887L292 983L530 837L514 797Z" />
<glyph unicode="&#xd3;" glyph-name="Oacute" horiz-adv-x="760" d="M380 -5Q302 -5 237 23T123 104T47 226T20 380Q20 463 47 533T122 656T236 736T380 765Q458 765 524 737T638 656T713 534T740 380Q740 297 714 227T639 104T524 24T380 -5ZM401 79Q450 79 486
112T542 205T562 345Q562 440 535 516T462 636T359 681Q311 681 275 648T218 555T198 415Q198 321 225 245T298 124T401 79ZM246 797L230 837L468 983L530 887L246 797Z" />
<glyph unicode="&#xd4;" glyph-name="Ocircumflex" horiz-adv-x="760" d="M380 -5Q302 -5 237 23T123 104T47 226T20 380Q20 463 47 533T122 656T236 736T380 765Q458 765 524 737T638 656T713 534T740 380Q740 297 714 227T639 104T524 24T380 -5ZM401 79Q450
79 486 112T542 205T562 345Q562 440 535 516T462 636T359 681Q311 681 275 648T218 555T198 415Q198 321 225 245T298 124T401 79ZM223 789L189 819L380 997L571 819L537 789L380 882L223 789Z" />
<glyph unicode="&#xd5;" glyph-name="Otilde" horiz-adv-x="760" d="M380 -5Q302 -5 237 23T123 104T47 226T20 380Q20 463 47 533T122 656T236 736T380 765Q458 765 524 737T638 656T713 534T740 380Q740 297 714 227T639 104T524 24T380 -5ZM401 79Q450 79 486
112T542 205T562 345Q562 440 535 516T462 636T359 681Q311 681 275 648T218 555T198 415Q198 321 225 245T298 124T401 79ZM445 807Q406 807 362 849Q321 888 291 888Q278 888 266 880T231 846L206 890Q257 969 314 969Q356 969 398 927Q437 888 468 888Q481 888
493 896T529 930L554 886Q502 807 445 807Z" />
<glyph unicode="&#xd6;" glyph-name="Odieresis" horiz-adv-x="760" d="M380 -5Q302 -5 237 23T123 104T47 226T20 380Q20 463 47 533T122 656T236 736T380 765Q458 765 524 737T638 656T713 534T740 380Q740 297 714 227T639 104T524 24T380 -5ZM401 79Q450 79
486 112T542 205T562 345Q562 440 535 516T462 636T359 681Q311 681 275 648T218 555T198 415Q198 321 225 245T298 124T401 79ZM425 813V957H545V813H425ZM215 813V957H335V813H215Z" />
<glyph unicode="&#xd7;" glyph-name="multiply" horiz-adv-x="500" d="M337 180L224 293L116 185L52 249L160 357L50 467L163 580L273 470L381 578L445 514L337 406L450 293L337 180Z" />
<glyph unicode="&#xd8;" glyph-name="Oslash" horiz-adv-x="760" d="M135 -30L55 25L118 109Q72 160 46 229T20 380Q20 463 47 533T122 656T236 736T380 765Q433 765 480 752T568 713L625 790L705 735L642 651Q688 600 714 531T740 380Q740 297 714 227T639 104T524
24T380 -5Q327 -5 280 8T192 47L135 -30ZM198 415Q198 370 204 329T223 251L488 606Q462 642 429 661T359 681Q311 681 275 648T218 555T198 415ZM401 79Q450 79 486 112T542 205T562 345Q562 390 556 431T537 509L272 154Q298 118 331 99T401 79Z" />
<glyph unicode="&#xd9;" glyph-name="Ugrave" horiz-adv-x="733" d="M372 -5Q277 -5 212 28T106 136T48 331T30 629Q30 669 31 702T33 757Q98 757 147 756T232 753Q229 662 229 584Q229 404 247 298T306 145T416 99Q480 99 517 137T571 264T588 502Q588 549 587
607T581 754L700 758Q702 729 702 692T703 614Q703 440 686 322T631 131T529 27T372 -5ZM544 797L260 887L322 983L560 837L544 797Z" />
<glyph unicode="&#xda;" glyph-name="Uacute" horiz-adv-x="733" d="M372 -5Q277 -5 212 28T106 136T48 331T30 629Q30 669 31 702T33 757Q98 757 147 756T232 753Q229 662 229 584Q229 404 247 298T306 145T416 99Q480 99 517 137T571 264T588 502Q588 549 587
607T581 754L700 758Q702 729 702 692T703 614Q703 440 686 322T631 131T529 27T372 -5ZM276 797L260 837L498 983L560 887L276 797Z" />
<glyph unicode="&#xdb;" glyph-name="Ucircumflex" horiz-adv-x="733" d="M372 -5Q277 -5 212 28T106 136T48 331T30 629Q30 669 31 702T33 757Q98 757 147 756T232 753Q229 662 229 584Q229 404 247 298T306 145T416 99Q480 99 517 137T571 264T588 502Q588 549
587 607T581 754L700 758Q702 729 702 692T703 614Q703 440 686 322T631 131T529 27T372 -5ZM253 789L219 819L410 997L601 819L567 789L410 882L253 789Z" />
<glyph unicode="&#xdc;" glyph-name="Udieresis" horiz-adv-x="733" d="M372 -5Q277 -5 212 28T106 136T48 331T30 629Q30 669 31 702T33 757Q98 757 147 756T232 753Q229 662 229 584Q229 404 247 298T306 145T416 99Q480 99 517 137T571 264T588 502Q588 549
587 607T581 754L700 758Q702 729 702 692T703 614Q703 440 686 322T631 131T529 27T372 -5ZM455 813V957H575V813H455ZM245 813V957H365V813H245Z" />
<glyph unicode="&#xdd;" glyph-name="Yacute" horiz-adv-x="770" d="M488 -2Q455 -2 417 -2T345 0T286 2Q286 50 287 109T290 229T294 340Q239 412 185 486T87 626T15 734Q44 744 98 753T217 770Q251 703 306 612T432 417Q489 501 542 589T643 767L755 743Q722
688 677 621T580 483T477 344Q480 296 482 237T486 116T488 -2ZM266 797L250 837L488 983L550 887L266 797Z" />
<glyph unicode="&#xde;" glyph-name="Thorn" horiz-adv-x="660" d="M59 -2Q57 52 56 137T53 327T51 542T50 757Q76 757 110 757T178 755T232 753Q232 728 232 701T232 645Q440 641 540 587T640 423Q640 342 589 280T446 183T230 144Q229 99 229 63T227 2Q196 1
163 0T103 -1T59 -2ZM455 374Q455 457 396 506T232 563Q232 479 232 392T230 226Q348 229 401 264T455 374Z" />
<glyph unicode="&#xdf;" glyph-name="germandbls" horiz-adv-x="610" d="M313 -10L296 60Q357 71 391 111T425 212Q425 291 369 335T210 385V376Q210 299 213 199T222 3Q184 0 143 -1T60 -3Q55 83 53 148T50 268Q50 451 77 560T167 717T335 765Q438 765 496 726T555
619Q555 511 395 460Q449 452 491 423T556 351T580 256Q580 205 558 158T498 72T412 12T313 -10ZM308 685Q261 685 239 635T211 460Q410 511 410 593Q410 617 396 638T359 672T308 685Z" />
<glyph unicode="&#xe0;" glyph-name="agrave" horiz-adv-x="630" d="M222 -5Q137 -5 84 36T30 145Q30 206 74 258T198 346T379 397Q343 485 280 485Q242 485 182 456T60 380L30 480Q179 565 312 565Q416 565 479 509T571 329T600 2Q581 1 533 0T428 -2Q428 30
427 61Q324 -5 222 -5ZM195 152Q195 121 219 103T285 85Q357 85 424 147Q418 253 401 326Q362 318 326 300T260 258T213 206T195 152ZM449 597L165 687L227 783L465 637L449 597Z" />
<glyph unicode="&#xe1;" glyph-name="aacute" horiz-adv-x="630" d="M222 -5Q137 -5 84 36T30 145Q30 206 74 258T198 346T379 397Q343 485 280 485Q242 485 182 456T60 380L30 480Q179 565 312 565Q416 565 479 509T571 329T600 2Q581 1 533 0T428 -2Q428 30
427 61Q324 -5 222 -5ZM195 152Q195 121 219 103T285 85Q357 85 424 147Q418 253 401 326Q362 318 326 300T260 258T213 206T195 152ZM181 597L165 637L403 783L465 687L181 597Z" />
<glyph unicode="&#xe2;" glyph-name="acircumflex" horiz-adv-x="630" d="M222 -5Q137 -5 84 36T30 145Q30 206 74 258T198 346T379 397Q343 485 280 485Q242 485 182 456T60 380L30 480Q179 565 312 565Q416 565 479 509T571 329T600 2Q581 1 533 0T428 -2Q428
30 427 61Q324 -5 222 -5ZM195 152Q195 121 219 103T285 85Q357 85 424 147Q418 253 401 326Q362 318 326 300T260 258T213 206T195 152ZM158 589L124 619L315 797L506 619L472 589L315 682L158 589Z" />
<glyph unicode="&#xe3;" glyph-name="atilde" horiz-adv-x="630" d="M222 -5Q137 -5 84 36T30 145Q30 206 74 258T198 346T379 397Q343 485 280 485Q242 485 182 456T60 380L30 480Q179 565 312 565Q416 565 479 509T571 329T600 2Q581 1 533 0T428 -2Q428 30
427 61Q324 -5 222 -5ZM195 152Q195 121 219 103T285 85Q357 85 424 147Q418 253 401 326Q362 318 326 300T260 258T213 206T195 152ZM380 607Q341 607 297 649Q256 688 226 688Q213 688 201 680T166 646L141 690Q192 769 249 769Q291 769 333 727Q372 688 403
688Q416 688 428 696T464 730L489 686Q437 607 380 607Z" />
<glyph unicode="&#xe4;" glyph-name="adieresis" horiz-adv-x="630" d="M222 -5Q137 -5 84 36T30 145Q30 206 74 258T198 346T379 397Q343 485 280 485Q242 485 182 456T60 380L30 480Q179 565 312 565Q416 565 479 509T571 329T600 2Q581 1 533 0T428 -2Q428
30 427 61Q324 -5 222 -5ZM195 152Q195 121 219 103T285 85Q357 85 424 147Q418 253 401 326Q362 318 326 300T260 258T213 206T195 152ZM360 613V757H480V613H360ZM150 613V757H270V613H150Z" />
<glyph unicode="&#xe5;" glyph-name="aring" horiz-adv-x="630" d="M222 -5Q137 -5 84 36T30 145Q30 206 74 258T198 346T379 397Q343 485 280 485Q242 485 182 456T60 380L30 480Q179 565 312 565Q416 565 479 509T571 329T600 2Q581 1 533 0T428 -2Q428 30 427
61Q324 -5 222 -5ZM195 152Q195 121 219 103T285 85Q357 85 424 147Q418 253 401 326Q362 318 326 300T260 258T213 206T195 152ZM317 548Q263 548 230 579T197 662Q197 712 229 742T313 772Q367 772 400 741T433 658Q433 609 402 579T317 548ZM321 586Q347 586
347 648Q347 686 337 710T309 734Q283 734 283 672Q283 635 294 611T321 586Z" />
<glyph unicode="&#xe6;" glyph-name="ae" horiz-adv-x="960" d="M217 -5Q131 -5 81 36T30 148Q30 211 71 264T185 352T355 399Q315 485 250 485Q212 485 166 457T80 380L30 480Q103 526 158 545T272 565Q405 565 477 469Q516 513 570 539T688 565Q760 565 814
531T899 437T930 297L558 223Q573 158 612 118T703 77Q748 77 789 107T858 193L930 133Q827 -5 669 -5Q604 -5 551 18T462 83Q408 41 344 18T217 -5ZM659 485Q629 485 606 463T567 401T550 311L767 343Q765 382 750 414T711 465T659 485ZM180 164Q180 128 204 104T265
80Q329 80 399 163Q396 258 379 329Q326 322 281 298T208 238T180 164Z" />
<glyph unicode="&#xe7;" glyph-name="ccedilla" horiz-adv-x="590" d="M321 -5Q262 -5 210 17T117 79T53 169T30 278Q30 337 53 388T119 480T215 542T332 565Q462 565 580 457L485 353Q453 412 404 448T306 485Q254 485 223 441T191 323Q191 256 214 200T278 111T365
77Q406 77 446 103T514 173L575 113Q457 -5 321 -5ZM265 -232L251 -190Q285 -175 303 -159T322 -130Q322 -111 291 -93T215 -65Q229 -44 257 -13T314 47L354 27L327 -19Q369 -38 393 -64T417 -118Q417 -153 378 -182T265 -232Z" />
<glyph unicode="&#xe8;" glyph-name="egrave" horiz-adv-x="620" d="M315 -5Q234 -5 170 32T68 134T30 281Q30 363 66 427T166 528T311 565Q387 565 447 532T545 438T590 297L193 223Q212 158 253 118T345 77Q392 77 438 109T509 193L580 133Q531 67 462 31T315
-5ZM180 321Q180 315 180 311L413 343Q406 407 372 446T289 485Q238 485 209 442T180 321ZM444 597L160 687L222 783L460 637L444 597Z" />
<glyph unicode="&#xe9;" glyph-name="eacute" horiz-adv-x="620" d="M315 -5Q234 -5 170 32T68 134T30 281Q30 363 66 427T166 528T311 565Q387 565 447 532T545 438T590 297L193 223Q212 158 253 118T345 77Q392 77 438 109T509 193L580 133Q531 67 462 31T315
-5ZM180 321Q180 315 180 311L413 343Q406 407 372 446T289 485Q238 485 209 442T180 321ZM176 597L160 637L398 783L460 687L176 597Z" />
<glyph unicode="&#xea;" glyph-name="ecircumflex" horiz-adv-x="620" d="M315 -5Q234 -5 170 32T68 134T30 281Q30 363 66 427T166 528T311 565Q387 565 447 532T545 438T590 297L193 223Q212 158 253 118T345 77Q392 77 438 109T509 193L580 133Q531 67 462
31T315 -5ZM180 321Q180 315 180 311L413 343Q406 407 372 446T289 485Q238 485 209 442T180 321ZM153 589L119 619L310 797L501 619L467 589L310 682L153 589Z" />
<glyph unicode="&#xeb;" glyph-name="edieresis" horiz-adv-x="620" d="M315 -5Q234 -5 170 32T68 134T30 281Q30 363 66 427T166 528T311 565Q387 565 447 532T545 438T590 297L193 223Q212 158 253 118T345 77Q392 77 438 109T509 193L580 133Q531 67 462 31T315
-5ZM180 321Q180 315 180 311L413 343Q406 407 372 446T289 485Q238 485 209 442T180 321ZM355 613V757H475V613H355ZM145 613V757H265V613H145Z" />
<glyph unicode="&#xec;" glyph-name="igrave" horiz-adv-x="272" d="M55 -2Q54 31 53 87T52 217T51 375T50 547Q95 547 144 546T222 543Q222 470 222 390T221 235T219 98T217 2Q171 0 129 -1T55 -2ZM270 597L-14 687L48 783L286 637L270 597Z" />
<glyph unicode="&#xed;" glyph-name="iacute" horiz-adv-x="272" d="M55 -2Q54 31 53 87T52 217T51 375T50 547Q95 547 144 546T222 543Q222 470 222 390T221 235T219 98T217 2Q171 0 129 -1T55 -2ZM2 597L-14 637L224 783L286 687L2 597Z" />
<glyph unicode="&#xee;" glyph-name="icircumflex" horiz-adv-x="272" d="M55 -2Q54 31 53 87T52 217T51 375T50 547Q95 547 144 546T222 543Q222 470 222 390T221 235T219 98T217 2Q171 0 129 -1T55 -2ZM-21 589L-55 619L136 797L327 619L293 589L136 682L-21 589Z" />
<glyph unicode="&#xef;" glyph-name="idieresis" horiz-adv-x="272" d="M55 -2Q54 31 53 87T52 217T51 375T50 547Q95 547 144 546T222 543Q222 470 222 390T221 235T219 98T217 2Q171 0 129 -1T55 -2ZM181 613V757H301V613H181ZM-29 613V757H91V613H-29Z" />
<glyph unicode="&#xf0;" glyph-name="eth" horiz-adv-x="600" d="M289 -5Q212 -5 154 28T63 120T30 258Q30 336 61 396T149 491T277 525Q305 525 333 519Q315 554 293 592L64 567L53 627L245 672Q226 702 204 735L305 775Q340 738 372 701L491 729L528 618L443
609Q505 519 537 434T570 274Q570 193 534 130T434 31T289 -5ZM181 304Q181 241 200 190T252 108T323 77Q367 77 391 117T415 231Q415 307 387 392Q368 416 340 430T280 445Q232 445 207 409T181 304Z" />
<glyph unicode="&#xf1;" glyph-name="ntilde" horiz-adv-x="631" d="M35 -2Q34 30 33 86T32 217T31 378T30 557Q52 557 84 557T148 555T202 553Q202 528 202 502Q287 565 375 565Q456 565 506 508T578 326T601 -2Q578 -2 546 -2T483 0T429 2Q429 179 419 285T386
438T324 485Q292 485 259 458T202 387Q201 302 201 226T199 92T197 2Q166 1 122 0T35 -2ZM380 607Q341 607 297 649Q256 688 226 688Q213 688 201 680T166 646L141 690Q192 769 249 769Q291 769 333 727Q372 688 403 688Q416 688 428 696T464 730L489 686Q437 607
380 607Z" />
<glyph unicode="&#xf2;" glyph-name="ograve" horiz-adv-x="640" d="M312 -5Q233 -5 169 32T68 132T30 272Q30 333 53 386T117 479T213 542T328 565Q407 565 471 528T572 429T610 288Q610 227 587 174T523 81T428 18T312 -5ZM341 76Q394 76 424 121T454 248Q454
316 434 369T379 453T299 484Q246 484 216 439T186 312Q186 245 206 192T261 107T341 76ZM454 597L170 687L232 783L470 637L454 597Z" />
<glyph unicode="&#xf3;" glyph-name="oacute" horiz-adv-x="640" d="M312 -5Q233 -5 169 32T68 132T30 272Q30 333 53 386T117 479T213 542T328 565Q407 565 471 528T572 429T610 288Q610 227 587 174T523 81T428 18T312 -5ZM341 76Q394 76 424 121T454 248Q454
316 434 369T379 453T299 484Q246 484 216 439T186 312Q186 245 206 192T261 107T341 76ZM186 597L170 637L408 783L470 687L186 597Z" />
<glyph unicode="&#xf4;" glyph-name="ocircumflex" horiz-adv-x="640" d="M312 -5Q233 -5 169 32T68 132T30 272Q30 333 53 386T117 479T213 542T328 565Q407 565 471 528T572 429T610 288Q610 227 587 174T523 81T428 18T312 -5ZM341 76Q394 76 424 121T454 248Q454
316 434 369T379 453T299 484Q246 484 216 439T186 312Q186 245 206 192T261 107T341 76ZM163 589L129 619L320 797L511 619L477 589L320 682L163 589Z" />
<glyph unicode="&#xf5;" glyph-name="otilde" horiz-adv-x="640" d="M312 -5Q233 -5 169 32T68 132T30 272Q30 333 53 386T117 479T213 542T328 565Q407 565 471 528T572 429T610 288Q610 227 587 174T523 81T428 18T312 -5ZM341 76Q394 76 424 121T454 248Q454
316 434 369T379 453T299 484Q246 484 216 439T186 312Q186 245 206 192T261 107T341 76ZM385 607Q346 607 302 649Q261 688 231 688Q218 688 206 680T171 646L146 690Q197 769 254 769Q296 769 338 727Q377 688 408 688Q421 688 433 696T469 730L494 686Q442 607
385 607Z" />
<glyph unicode="&#xf6;" glyph-name="odieresis" horiz-adv-x="640" d="M312 -5Q233 -5 169 32T68 132T30 272Q30 333 53 386T117 479T213 542T328 565Q407 565 471 528T572 429T610 288Q610 227 587 174T523 81T428 18T312 -5ZM341 76Q394 76 424 121T454 248Q454
316 434 369T379 453T299 484Q246 484 216 439T186 312Q186 245 206 192T261 107T341 76ZM365 613V757H485V613H365ZM155 613V757H275V613H155Z" />
<glyph unicode="&#xf7;" glyph-name="divide" horiz-adv-x="500" d="M304 477Q268 482 237 484T182 486Q182 533 183 565T185 626Q225 626 260 624T317 618Q313 585 310 550T304 477ZM50 335V425H450V335H50ZM199 134Q192 171 188 205T180 272Q230 282 311 282Q314
207 320 141Q295 141 264 140T199 134Z" />
<glyph unicode="&#xf8;" glyph-name="oslash" horiz-adv-x="640" d="M145 -35L65 20L109 78Q72 116 51 165T30 272Q30 333 53 386T117 479T213 542T328 565Q394 565 452 538L495 595L575 540L531 482Q568 444 589 395T610 288Q610 227 587 174T523 81T428 18T312
-5Q246 -5 188 22L145 -35ZM186 312Q186 253 202 203L385 447Q347 484 299 484Q246 484 216 439T186 312ZM341 76Q394 76 424 121T454 248Q454 307 438 357L255 113Q293 76 341 76Z" />
<glyph unicode="&#xf9;" glyph-name="ugrave" horiz-adv-x="630" d="M253 -5Q30 -5 30 402Q30 470 36 548Q60 550 101 551T208 552Q202 452 202 374Q202 220 226 148T302 75Q336 75 370 103T430 177Q429 256 429 354T428 557Q469 557 518 556T600 553Q600 472
600 389T599 230T597 95T595 2Q556 0 514 -1T433 -2Q432 22 431 60Q345 -5 253 -5ZM452 597L168 687L230 783L468 637L452 597Z" />
<glyph unicode="&#xfa;" glyph-name="uacute" horiz-adv-x="630" d="M253 -5Q30 -5 30 402Q30 470 36 548Q60 550 101 551T208 552Q202 452 202 374Q202 220 226 148T302 75Q336 75 370 103T430 177Q429 256 429 354T428 557Q469 557 518 556T600 553Q600 472
600 389T599 230T597 95T595 2Q556 0 514 -1T433 -2Q432 22 431 60Q345 -5 253 -5ZM184 597L168 637L406 783L468 687L184 597Z" />
<glyph unicode="&#xfb;" glyph-name="ucircumflex" horiz-adv-x="630" d="M253 -5Q30 -5 30 402Q30 470 36 548Q60 550 101 551T208 552Q202 452 202 374Q202 220 226 148T302 75Q336 75 370 103T430 177Q429 256 429 354T428 557Q469 557 518 556T600 553Q600
472 600 389T599 230T597 95T595 2Q556 0 514 -1T433 -2Q432 22 431 60Q345 -5 253 -5ZM161 589L127 619L318 797L509 619L475 589L318 682L161 589Z" />
<glyph unicode="&#xfc;" glyph-name="udieresis" horiz-adv-x="630" d="M253 -5Q30 -5 30 402Q30 470 36 548Q60 550 101 551T208 552Q202 452 202 374Q202 220 226 148T302 75Q336 75 370 103T430 177Q429 256 429 354T428 557Q469 557 518 556T600 553Q600 472
600 389T599 230T597 95T595 2Q556 0 514 -1T433 -2Q432 22 431 60Q345 -5 253 -5ZM363 613V757H483V613H363ZM153 613V757H273V613H153Z" />
<glyph unicode="&#xfd;" glyph-name="yacute" horiz-adv-x="620" d="M80 -132L70 -38Q123 -35 165 -25T243 8Q201 92 158 187T77 374T10 544Q46 550 100 556T206 566Q231 489 272 381T361 154Q394 221 424 321T489 562L610 548Q561 368 508 241T392 32T252 -88T80
-132ZM216 597L200 637L438 783L500 687L216 597Z" />
<glyph unicode="&#xfe;" glyph-name="thorn" horiz-adv-x="600" d="M222 -117Q191 -117 142 -116T50 -113Q50 -41 50 45T50 222T51 399T52 559T53 683T55 753Q85 755 125 756T217 757Q218 735 218 673T220 522Q281 565 348 565Q412 565 462 529T541 431T570 288Q570
207 540 141T458 35T342 -5Q285 -5 222 28Q222 -50 222 -117ZM302 483Q258 483 220 432Q221 364 221 291T222 144Q239 112 264 94T319 75Q366 75 392 123T419 256Q419 321 404 372T362 453T302 483Z" />
<glyph unicode="&#xff;" glyph-name="ydieresis" horiz-adv-x="620" d="M80 -132L70 -38Q123 -35 165 -25T243 8Q201 92 158 187T77 374T10 544Q46 550 100 556T206 566Q231 489 272 381T361 154Q394 221 424 321T489 562L610 548Q561 368 508 241T392 32T252
-88T80 -132ZM395 613V757H515V613H395ZM185 613V757H305V613H185Z" />
<glyph unicode="&#x2013;" glyph-name="endash" horiz-adv-x="600" d="M50 335V425H550V335H50Z" />
<glyph unicode="&#x2014;" glyph-name="emdash" horiz-adv-x="800" d="M50 335V425H750V335H50Z" />
<glyph unicode="&#x2018;" glyph-name="quoteleft" horiz-adv-x="340" d="M198 858L241 817L187 759Q205 733 230 705T290 646Q264 618 232 591T173 544Q138 589 107 635T50 728Q85 756 123 790T198 858Z" />
<glyph unicode="&#x2019;" glyph-name="quoteright" horiz-adv-x="340" d="M142 544L99 585L153 643Q135 669 110 697T50 756Q76 784 108 811T167 858Q202 813 233 767T290 674Q256 646 217 612T142 544Z" />
<glyph unicode="&#x201a;" glyph-name="quotesinglbase" horiz-adv-x="340" d="M142 -76L99 -35L153 23Q135 49 110 77T50 136Q76 164 108 191T167 238Q202 193 233 147T290 54Q256 26 217 -8T142 -76Z" />
<glyph unicode="&#x201c;" glyph-name="quotedblleft" horiz-adv-x="570" d="M428 858L471 817L417 759Q435 733 460 705T520 646Q494 618 462 591T403 544Q368 589 337 635T280 728Q315 756 353 790T428 858ZM198 1084L241 1043L187 985Q205 959 230 931T290
872Q264 844 232 817T173 770Q138 815 107 861T50 954Q85 982 123 1016T198 1084Z" />
<glyph unicode="&#x201d;" glyph-name="quotedblright" horiz-adv-x="570" d="M372 544L329 585L383 643Q365 669 340 697T280 756Q306 784 338 811T397 858Q432 813 463 767T520 674Q486 646 447 612T372 544ZM142 770L99 811L153 869Q135 895 110 923T50 982Q76
1010 108 1037T167 1084Q202 1039 233 993T290 900Q256 872 217 838T142 770Z" />
<glyph unicode="&#x201e;" glyph-name="quotedblbase" horiz-adv-x="570" d="M372 -46L329 -5L383 53Q365 79 340 107T280 166Q306 194 338 221T397 268Q432 223 463 177T520 84Q486 56 447 22T372 -46ZM142 -76L99 -35L153 23Q135 49 110 77T50 136Q76 164 108
191T167 238Q202 193 233 147T290 54Q256 26 217 -8T142 -76Z" />
<glyph unicode="&#x2022;" glyph-name="bullet" horiz-adv-x="570" d="M285 245Q248 245 217 263T168 312T150 380Q150 418 168 448T217 497T285 515Q323 515 353 497T402 449T420 380Q420 343 402 312T354 263T285 245Z" />
<glyph unicode="&#x2039;" glyph-name="guilsinglleft" horiz-adv-x="444" d="M350 100L50 380L350 660L394 620L230 380L394 140L350 100Z" />
<glyph unicode="&#x203a;" glyph-name="guilsinglright" horiz-adv-x="444" d="M94 100L50 140L214 380L50 620L94 660L394 380L94 100Z" />
</font>
</defs>
</svg>
